{"title":"Boca.2010.720p.BluRay.x264-EE","uid":7039184,"size":4692298470,"categoryP":"video","categoryS":"hd___movies","magnet":"?xt=urn:btih:7afebf3004a8ae3058d115a4c94f63a50c4c6a57&amp;dn=Boca.2010.720p.BluRay.x264-EE&amp;tr=udp%3A%2F%2Ftracker.openbittorrent.com%3A80&amp;tr=udp%3A%2F%2Fopen.demonii.com%3A1337&amp;tr=udp%3A%2F%2Ftracker.coppersurfer.tk%3A6969&amp;tr=udp%3A%2F%2Fexodus.desync.com%3A6969","seeders":5,"leechers":2,"uploader":"mfccorrea","files":1,"time":1329437426,"description":"The lavishly produced and stylish crime thriller Boca - directed by Brazilian filmmaker Flavio Frederico and based on the autobiography of Hiroito, 'The King of Boca do Lixo' - makes for enjoyable viewing. Set amidst the brothels and nightclubs of 1950's SÃƒÂ£o Paulo, Hiroito (Daniel de Oliveira) rises to become one the region's most notorious crime lords, trading in women, drugs and guns. After the death of his father - a crime Hiroito was arrested for but never charged - the self-styled kingpin begins to establish his empire, but soon comes unstuck to drugs and women.\n\nThere is a clearly a strong level of brutal honesty by the real Hiroito in what he reveals in his autobiography, and consequently Frederico's film. Boca follows the traditional pattern of crime films, in that those who do wrong must have their comeuppance - shown most expertly in Coppola's Godfather Trilogy. This generic formula is handled well throughout, with the opening scenes showing the lead character at the time of his fall from power.\n\n   General\n      Complete name :\n      Format : Matroska\n      File size : 4.37 GiB\n      Duration : 1h 37mn\n      Overall bit rate : 6 400 Kbps\n      Encoded date : UTC 2012-02-15 15:31:12\n      Writing application : mkvmerge v5.2.1 ('A Far Off Place') built on Jan  2 2012 23:21:10\n      Writing library : libebml v1.2.3 + libmatroska v1.3.0\n   Video #1\n      ID : 1\n      Format : AVC\n      Format/Info : Advanced Video Codec\n      Format profile : &lt;a class=&quot;__cf_email__&quot; href=&quot;/cdn-cgi/l/email-protection&quot; data-cfemail=&quot;82caebe5eac2ceb6acb3&quot;&gt;[email&amp;#160;protected]&lt;/a&gt;&lt;script cf-hash='f9e31' type=&quot;text/javascript&quot;&gt;\n/* &lt;![CDATA[ */!function(){try{var t=&quot;currentScript&quot;in document?document.currentScript:function(){for(var t=document.getElementsByTagName(&quot;script&quot;),e=t.length;e--;)if(t[e].getAttribute(&quot;cf-hash&quot;))return t[e]}();if(t&amp;&amp;t.previousSibling){var e,r,n,i,c=t.previousSibling,a=c.getAttribute(&quot;data-cfemail&quot;);if(a){for(e=&quot;&quot;,r=parseInt(a.substr(0,2),16),n=2;a.length-n;n+=2)i=parseInt(a.substr(n,2),16)^r,e+=String.fromCharCode(i);e=document.createTextNode(e),c.parentNode.replaceChild(e,c)}}}catch(u){}}();/* ]]&gt; */&lt;/script&gt;\n      Format settings, CABAC : Yes\n      Format settings, ReFrames : 5 frames\n      Muxing mode : Container profile=&lt;a class=&quot;__cf_email__&quot; href=&quot;/cdn-cgi/l/email-protection&quot; data-cfemail=&quot;e9bc878287869e87a9ddc7d8&quot;&gt;[email&amp;#160;protected]&lt;/a&gt;&lt;script cf-hash='f9e31' type=&quot;text/javascript&quot;&gt;\n/* &lt;![CDATA[ */!function(){try{var t=&quot;currentScript&quot;in document?document.currentScript:function(){for(var t=document.getElementsByTagName(&quot;script&quot;),e=t.length;e--;)if(t[e].getAttribute(&quot;cf-hash&quot;))return t[e]}();if(t&amp;&amp;t.previousSibling){var e,r,n,i,c=t.previousSibling,a=c.getAttribute(&quot;data-cfemail&quot;);if(a){for(e=&quot;&quot;,r=parseInt(a.substr(0,2),16),n=2;a.length-n;n+=2)i=parseInt(a.substr(n,2),16)^r,e+=String.fromCharCode(i);e=document.createTextNode(e),c.parentNode.replaceChild(e,c)}}}catch(u){}}();/* ]]&gt; */&lt;/script&gt;\n      Codec ID : V_MPEG4/ISO/AVC\n      Duration : 1h 37mn\n      Bit rate : 4 763 Kbps\n      Nominal bit rate : 4 892 Kbps\n      Width : 1 280 pixels\n      Height : 720 pixels\n      Display aspect ratio : 16:9\n      Frame rate : 23.976 fps\n      Resolution : 24 bits\n      Colorimetry : 4:2:0\n      Scan type : Progressive\n      Bits/(Pixel*Frame) : 0.216\n      Stream size : 3.25 GiB (74%)\n      Writing library : x264 core 120 r2164 da19765\n   Audio #2\n      ID : 2\n      Format : DTS\n      Format/Info : Digital Theater Systems\n      Codec ID : A_DTS\n      Duration : 1h 37mn\n      Bit rate mode : Constant\n      Bit rate : 1 510 Kbps\n      Channel(s) : 6 channels\n      Channel positions : Front: L C R, Surround: L R, LFE\n      Sampling rate : 48.0 KHz\n      Resolution : 16 bits\n      Stream size : 1.03 GiB (24%)\n   Text #3\n      ID : 3\n      Format : UTF-8\n      Codec ID : S_TEXT/UTF8\n      Codec ID/Info : UTF-8 Plain Text\n      Title : English\n &lt;a href=&quot;\nhttp://www.imdb.com/title/tt1827372/&quot; rel=&quot;nofollow&quot; target=&quot;_NEW&quot;&gt;\nhttp://www.imdb.com/title/tt1827372/&lt;/a&gt;\n\nLanguage: Portuguese\nSubtitles: English (muxed in mkv)","torrent":{"xt":"urn:btih:7afebf3004a8ae3058d115a4c94f63a50c4c6a57","amp;dn":"Boca.2010.720p.BluRay.x264-EE","amp;tr":["udp%3A%2F%2Ftracker.openbittorrent.com%3A80","udp%3A%2F%2Fopen.demonii.com%3A1337","udp%3A%2F%2Ftracker.coppersurfer.tk%3A6969","udp%3A%2F%2Fexodus.desync.com%3A6969"],"infoHash":"7afebf3004a8ae3058d115a4c94f63a50c4c6a57","infoHashBuffer":{"type":"Buffer","data":[122,254,191,48,4,168,174,48,88,209,21,164,201,79,99,165,12,76,106,87]},"announce":[],"urlList":[]}}